<svg xmlns="http://www.w3.org/2000/svg" width="830" height="312" viewBox="0 0 830 312" font-family="ui-sans-serif,system-ui,-apple-system,Segoe UI,Roboto,Helvetica,Arial,sans-serif" role="img" aria-label="Peak resident set relative to the control - debian / x86_64 / static-pie / distro - ◀ shorter bar is BETTER">
<rect width="100%" height="100%" fill="#ffffff"/>
<text x="16" y="26" font-size="15" font-weight="600" fill="#1b1f24">Peak resident set relative to the control - debian / x86_64 / static-pie / distro</text>
<text x="16" y="45" font-size="11" fill="#5b636d">workload `literal`; `ru_maxrss` from `wait4`, median of the run's samples</text>
<rect x="16" y="54" width="188" height="19" rx="9.5" fill="#1f7a4d" opacity="0.12"/>
<text x="110" y="67.5" font-size="10.5" font-weight="600" fill="#1f7a4d" text-anchor="middle">◀ shorter bar is BETTER</text>
<rect x="214.0" y="58" width="10" height="10" rx="2" fill="#8a8f98"/>
<text x="228.0" y="67" font-size="10" fill="#5b636d">control</text>
<rect x="267.8" y="58" width="10" height="10" rx="2" fill="#3b7dd8"/>
<text x="281.8" y="67" font-size="10" fill="#5b636d">better than control</text>
<rect x="386.4" y="58" width="10" height="10" rx="2" fill="#d1495b"/>
<text x="400.4" y="67" font-size="10" fill="#5b636d">worse than control</text>
<rect x="499.6" y="58" width="10" height="10" rx="2" fill="#9aa7b4"/>
<text x="513.6" y="67" font-size="10" fill="#5b636d">inside its own noise</text>
<line x1="260.0" y1="98.0" x2="260.0" y2="260.0" stroke="#d8dce1" stroke-width="1"/>
<text x="260.0" y="93.0" font-size="9.5" fill="#5b636d" text-anchor="middle">0×</text>
<line x1="321.5" y1="98.0" x2="321.5" y2="260.0" stroke="#d8dce1" stroke-width="1"/>
<text x="321.5" y="93.0" font-size="9.5" fill="#5b636d" text-anchor="middle">0.5×</text>
<line x1="383.0" y1="98.0" x2="383.0" y2="260.0" stroke="#d8dce1" stroke-width="1"/>
<text x="383.0" y="93.0" font-size="9.5" fill="#5b636d" text-anchor="middle">1×</text>
<line x1="444.5" y1="98.0" x2="444.5" y2="260.0" stroke="#d8dce1" stroke-width="1"/>
<text x="444.5" y="93.0" font-size="9.5" fill="#5b636d" text-anchor="middle">1.5×</text>
<line x1="506.0" y1="98.0" x2="506.0" y2="260.0" stroke="#d8dce1" stroke-width="1"/>
<text x="506.0" y="93.0" font-size="9.5" fill="#5b636d" text-anchor="middle">2×</text>
<line x1="567.5" y1="98.0" x2="567.5" y2="260.0" stroke="#d8dce1" stroke-width="1"/>
<text x="567.5" y="93.0" font-size="9.5" fill="#5b636d" text-anchor="middle">2.5×</text>
<line x1="629.0" y1="98.0" x2="629.0" y2="260.0" stroke="#d8dce1" stroke-width="1"/>
<text x="629.0" y="93.0" font-size="9.5" fill="#5b636d" text-anchor="middle">3×</text>
<line x1="690.5" y1="98.0" x2="690.5" y2="260.0" stroke="#d8dce1" stroke-width="1"/>
<text x="690.5" y="93.0" font-size="9.5" fill="#5b636d" text-anchor="middle">3.5×</text>
<line x1="260.0" y1="260.0" x2="720.0" y2="260.0" stroke="#aeb4bb" stroke-width="1"/>
<line x1="383.0" y1="98.0" x2="383.0" y2="264.0" stroke="#1b1f24" stroke-width="1.2" stroke-dasharray="4 3"/>
<text x="383.0" y="276.0" font-size="10" font-weight="600" fill="#1b1f24" text-anchor="middle">control = 1.000×</text>
<text x="250" y="121.7" font-size="11" fill="#1b1f24" text-anchor="end">system (control)</text>
<rect x="260" y="109.0" width="123.0" height="15" rx="2" fill="#8a8f98"/>
<text x="389.0" y="121.7" font-size="10.5" fill="#5b636d">1.000×  same as control  (5.4 MiB)</text>
<text x="250" y="147.7" font-size="11" fill="#1b1f24" text-anchor="end">snmalloc / rust-global</text>
<rect x="260" y="135.0" width="175.4" height="15" rx="2" fill="#d1495b"/>
<text x="441.4" y="147.7" font-size="10.5" fill="#5b636d">1.426×  42.6% more memory  (7.7 MiB)</text>
<text x="250" y="173.7" font-size="11" fill="#1b1f24" text-anchor="end">rpmalloc / rust-global</text>
<rect x="260" y="161.0" width="128.9" height="15" rx="2" fill="#d1495b"/>
<text x="394.9" y="173.7" font-size="10.5" fill="#5b636d">1.048×  4.8% more memory  (5.7 MiB)</text>
<text x="250" y="199.7" font-size="11" fill="#1b1f24" text-anchor="end">jemalloc / rust-global</text>
<rect x="260" y="187.0" width="184.6" height="15" rx="2" fill="#d1495b"/>
<text x="450.6" y="199.7" font-size="10.5" fill="#5b636d">1.501×  50.1% more memory  (8.1 MiB)</text>
<text x="250" y="225.7" font-size="11" fill="#1b1f24" text-anchor="end">mimalloc / rust-global</text>
<rect x="260" y="213.0" width="425.9" height="15" rx="2" fill="#d1495b"/>
<text x="691.9" y="225.7" font-size="10.5" fill="#5b636d">3.463×  246.3% more memory  (18.7 MiB)</text>
<text x="250" y="251.7" font-size="11" fill="#1b1f24" text-anchor="end">hardened_malloc / rust-global</text>
<rect x="260" y="239.0" width="318.2" height="15" rx="2" fill="#d1495b"/>
<text x="584.2" y="251.7" font-size="10.5" fill="#5b636d">2.587×  158.7% more memory  (14.0 MiB)</text>
<text x="16" y="300.0" font-size="10" fill="#5b636d">Peak RSS is what sets a container's memory limit.  It is not the allocator's own idea of heap size, and it does NOT transfer between machines (docs/AGENTS.md).</text></svg>