<svg xmlns="http://www.w3.org/2000/svg" width="830" height="312" viewBox="0 0 830 312" font-family="ui-sans-serif,system-ui,-apple-system,Segoe UI,Roboto,Helvetica,Arial,sans-serif" role="img" aria-label="Execution time relative to the control - debian / x86_64 / static-pie / distro - ◀ shorter bar is BETTER">
<rect width="100%" height="100%" fill="#ffffff"/>
<text x="16" y="26" font-size="15" font-weight="600" fill="#1b1f24">Execution time relative to the control - debian / x86_64 / static-pie / distro</text>
<text x="16" y="45" font-size="11" fill="#5b636d">workload `literal`; median of the run's samples; whiskers are that cell's own relative MAD</text>
<rect x="16" y="54" width="188" height="19" rx="9.5" fill="#1f7a4d" opacity="0.12"/>
<text x="110" y="67.5" font-size="10.5" font-weight="600" fill="#1f7a4d" text-anchor="middle">◀ shorter bar is BETTER</text>
<rect x="214.0" y="58" width="10" height="10" rx="2" fill="#8a8f98"/>
<text x="228.0" y="67" font-size="10" fill="#5b636d">control</text>
<rect x="267.8" y="58" width="10" height="10" rx="2" fill="#3b7dd8"/>
<text x="281.8" y="67" font-size="10" fill="#5b636d">better than control</text>
<rect x="386.4" y="58" width="10" height="10" rx="2" fill="#d1495b"/>
<text x="400.4" y="67" font-size="10" fill="#5b636d">worse than control</text>
<rect x="499.6" y="58" width="10" height="10" rx="2" fill="#9aa7b4"/>
<text x="513.6" y="67" font-size="10" fill="#5b636d">inside its own noise</text>
<line x1="260.0" y1="98.0" x2="260.0" y2="260.0" stroke="#d8dce1" stroke-width="1"/>
<text x="260.0" y="93.0" font-size="9.5" fill="#5b636d" text-anchor="middle">0×</text>
<line x1="379.5" y1="98.0" x2="379.5" y2="260.0" stroke="#d8dce1" stroke-width="1"/>
<text x="379.5" y="93.0" font-size="9.5" fill="#5b636d" text-anchor="middle">0.5×</text>
<line x1="499.0" y1="98.0" x2="499.0" y2="260.0" stroke="#d8dce1" stroke-width="1"/>
<text x="499.0" y="93.0" font-size="9.5" fill="#5b636d" text-anchor="middle">1×</text>
<line x1="618.5" y1="98.0" x2="618.5" y2="260.0" stroke="#d8dce1" stroke-width="1"/>
<text x="618.5" y="93.0" font-size="9.5" fill="#5b636d" text-anchor="middle">1.5×</text>
<line x1="260.0" y1="260.0" x2="720.0" y2="260.0" stroke="#aeb4bb" stroke-width="1"/>
<line x1="499.0" y1="98.0" x2="499.0" y2="264.0" stroke="#1b1f24" stroke-width="1.2" stroke-dasharray="4 3"/>
<text x="499.0" y="276.0" font-size="10" font-weight="600" fill="#1b1f24" text-anchor="middle">control = 1.000×</text>
<text x="250" y="121.7" font-size="11" fill="#1b1f24" text-anchor="end">system (control)</text>
<rect x="260" y="109.0" width="239.0" height="15" rx="2" fill="#8a8f98"/>
<line x1="490.3" y1="117.0" x2="507.7" y2="117.0" stroke="#1b1f24" stroke-width="1" opacity="0.55"/>
<line x1="490.3" y1="113.0" x2="490.3" y2="121.0" stroke="#1b1f24" stroke-width="1" opacity="0.55"/>
<line x1="507.7" y1="113.0" x2="507.7" y2="121.0" stroke="#1b1f24" stroke-width="1" opacity="0.55"/>
<text x="513.7" y="121.7" font-size="10.5" fill="#5b636d">1.000×  same as control  (0.026 s)</text>
<text x="250" y="147.7" font-size="11" fill="#1b1f24" text-anchor="end">snmalloc / rust-global</text>
<rect x="260" y="135.0" width="240.6" height="15" rx="2" fill="#9aa7b4"/>
<line x1="492.5" y1="143.0" x2="508.7" y2="143.0" stroke="#1b1f24" stroke-width="1" opacity="0.55"/>
<line x1="492.5" y1="139.0" x2="492.5" y2="147.0" stroke="#1b1f24" stroke-width="1" opacity="0.55"/>
<line x1="508.7" y1="139.0" x2="508.7" y2="147.0" stroke="#1b1f24" stroke-width="1" opacity="0.55"/>
<text x="514.7" y="147.7" font-size="10.5" fill="#5b636d">1.007×   inside its own noise  (0.027 s)</text>
<text x="250" y="173.7" font-size="11" fill="#1b1f24" text-anchor="end">rpmalloc / rust-global</text>
<rect x="260" y="161.0" width="241.0" height="15" rx="2" fill="#9aa7b4"/>
<line x1="496.5" y1="169.0" x2="505.4" y2="169.0" stroke="#1b1f24" stroke-width="1" opacity="0.55"/>
<line x1="496.5" y1="165.0" x2="496.5" y2="173.0" stroke="#1b1f24" stroke-width="1" opacity="0.55"/>
<line x1="505.4" y1="165.0" x2="505.4" y2="173.0" stroke="#1b1f24" stroke-width="1" opacity="0.55"/>
<text x="511.4" y="173.7" font-size="10.5" fill="#5b636d">1.008×   inside its own noise  (0.027 s)</text>
<text x="250" y="199.7" font-size="11" fill="#1b1f24" text-anchor="end">jemalloc / rust-global</text>
<rect x="260" y="187.0" width="246.3" height="15" rx="2" fill="#d1495b"/>
<line x1="499.6" y1="195.0" x2="513.0" y2="195.0" stroke="#1b1f24" stroke-width="1" opacity="0.55"/>
<line x1="499.6" y1="191.0" x2="499.6" y2="199.0" stroke="#1b1f24" stroke-width="1" opacity="0.55"/>
<line x1="513.0" y1="191.0" x2="513.0" y2="199.0" stroke="#1b1f24" stroke-width="1" opacity="0.55"/>
<text x="519.0" y="199.7" font-size="10.5" fill="#5b636d">1.031×  3.1% slower  (0.027 s)</text>
<text x="250" y="225.7" font-size="11" fill="#1b1f24" text-anchor="end">mimalloc / rust-global</text>
<rect x="260" y="213.0" width="261.6" height="15" rx="2" fill="#d1495b"/>
<line x1="506.0" y1="221.0" x2="537.2" y2="221.0" stroke="#1b1f24" stroke-width="1" opacity="0.55"/>
<line x1="506.0" y1="217.0" x2="506.0" y2="225.0" stroke="#1b1f24" stroke-width="1" opacity="0.55"/>
<line x1="537.2" y1="217.0" x2="537.2" y2="225.0" stroke="#1b1f24" stroke-width="1" opacity="0.55"/>
<text x="543.2" y="225.7" font-size="10.5" fill="#5b636d">1.094×  9.4% slower  (0.029 s)</text>
<text x="250" y="251.7" font-size="11" fill="#1b1f24" text-anchor="end">hardened_malloc / rust-global</text>
<rect x="260" y="239.0" width="412.0" height="15" rx="2" fill="#d1495b"/>
<line x1="658.1" y1="247.0" x2="685.9" y2="247.0" stroke="#1b1f24" stroke-width="1" opacity="0.55"/>
<line x1="658.1" y1="243.0" x2="658.1" y2="251.0" stroke="#1b1f24" stroke-width="1" opacity="0.55"/>
<line x1="685.9" y1="243.0" x2="685.9" y2="251.0" stroke="#1b1f24" stroke-width="1" opacity="0.55"/>
<text x="691.9" y="251.7" font-size="10.5" fill="#5b636d">1.724×  72.4% slower  (0.046 s)</text>
<text x="16" y="300.0" font-size="10" fill="#5b636d">Generated by `alloc-bench report`. Ratios are within one image, architecture, profile and toolchain - no ratio crosses a group.</text></svg>