<svg xmlns="http://www.w3.org/2000/svg" width="830" height="260" viewBox="0 0 830 260" font-family="ui-sans-serif,system-ui,-apple-system,Segoe UI,Roboto,Helvetica,Arial,sans-serif" role="img" aria-label="Execution time relative to the control - wolfi / x86_64 / static-pie / distro - ◀ shorter bar is BETTER">
<rect width="100%" height="100%" fill="#ffffff"/>
<text x="16" y="26" font-size="15" font-weight="600" fill="#1b1f24">Execution time relative to the control - wolfi / x86_64 / static-pie / distro</text>
<text x="16" y="45" font-size="11" fill="#5b636d">workload `literal`; median of the run's samples; whiskers are that cell's own relative MAD</text>
<rect x="16" y="54" width="188" height="19" rx="9.5" fill="#1f7a4d" opacity="0.12"/>
<text x="110" y="67.5" font-size="10.5" font-weight="600" fill="#1f7a4d" text-anchor="middle">◀ shorter bar is BETTER</text>
<rect x="214.0" y="58" width="10" height="10" rx="2" fill="#8a8f98"/>
<text x="228.0" y="67" font-size="10" fill="#5b636d">control</text>
<rect x="267.8" y="58" width="10" height="10" rx="2" fill="#3b7dd8"/>
<text x="281.8" y="67" font-size="10" fill="#5b636d">better than control</text>
<rect x="386.4" y="58" width="10" height="10" rx="2" fill="#d1495b"/>
<text x="400.4" y="67" font-size="10" fill="#5b636d">worse than control</text>
<rect x="499.6" y="58" width="10" height="10" rx="2" fill="#9aa7b4"/>
<text x="513.6" y="67" font-size="10" fill="#5b636d">inside its own noise</text>
<line x1="260.0" y1="98.0" x2="260.0" y2="208.0" stroke="#d8dce1" stroke-width="1"/>
<text x="260.0" y="93.0" font-size="9.5" fill="#5b636d" text-anchor="middle">0×</text>
<line x1="341.5" y1="98.0" x2="341.5" y2="208.0" stroke="#d8dce1" stroke-width="1"/>
<text x="341.5" y="93.0" font-size="9.5" fill="#5b636d" text-anchor="middle">0.2×</text>
<line x1="423.0" y1="98.0" x2="423.0" y2="208.0" stroke="#d8dce1" stroke-width="1"/>
<text x="423.0" y="93.0" font-size="9.5" fill="#5b636d" text-anchor="middle">0.4×</text>
<line x1="504.5" y1="98.0" x2="504.5" y2="208.0" stroke="#d8dce1" stroke-width="1"/>
<text x="504.5" y="93.0" font-size="9.5" fill="#5b636d" text-anchor="middle">0.6×</text>
<line x1="586.0" y1="98.0" x2="586.0" y2="208.0" stroke="#d8dce1" stroke-width="1"/>
<text x="586.0" y="93.0" font-size="9.5" fill="#5b636d" text-anchor="middle">0.8×</text>
<line x1="667.5" y1="98.0" x2="667.5" y2="208.0" stroke="#d8dce1" stroke-width="1"/>
<text x="667.5" y="93.0" font-size="9.5" fill="#5b636d" text-anchor="middle">1×</text>
<line x1="260.0" y1="208.0" x2="720.0" y2="208.0" stroke="#aeb4bb" stroke-width="1"/>
<line x1="667.5" y1="98.0" x2="667.5" y2="212.0" stroke="#1b1f24" stroke-width="1.2" stroke-dasharray="4 3"/>
<text x="667.5" y="224.0" font-size="10" font-weight="600" fill="#1b1f24" text-anchor="middle">control = 1.000×</text>
<text x="250" y="121.7" font-size="11" fill="#1b1f24" text-anchor="end">mimalloc / rust-global</text>
<rect x="260" y="109.0" width="245.2" height="15" rx="2" fill="#3b7dd8"/>
<line x1="499.0" y1="117.0" x2="511.4" y2="117.0" stroke="#1b1f24" stroke-width="1" opacity="0.55"/>
<line x1="499.0" y1="113.0" x2="499.0" y2="121.0" stroke="#1b1f24" stroke-width="1" opacity="0.55"/>
<line x1="511.4" y1="113.0" x2="511.4" y2="121.0" stroke="#1b1f24" stroke-width="1" opacity="0.55"/>
<text x="517.4" y="121.7" font-size="10.5" fill="#5b636d">0.602×  39.8% faster  (0.030 s)</text>
<text x="250" y="147.7" font-size="11" fill="#1b1f24" text-anchor="end">jemalloc / rust-global</text>
<rect x="260" y="135.0" width="256.2" height="15" rx="2" fill="#3b7dd8"/>
<line x1="508.4" y1="143.0" x2="524.0" y2="143.0" stroke="#1b1f24" stroke-width="1" opacity="0.55"/>
<line x1="508.4" y1="139.0" x2="508.4" y2="147.0" stroke="#1b1f24" stroke-width="1" opacity="0.55"/>
<line x1="524.0" y1="139.0" x2="524.0" y2="147.0" stroke="#1b1f24" stroke-width="1" opacity="0.55"/>
<text x="530.0" y="147.7" font-size="10.5" fill="#5b636d">0.629×  37.1% faster  (0.031 s)</text>
<text x="250" y="173.7" font-size="11" fill="#1b1f24" text-anchor="end">hardened_malloc / rust-global</text>
<rect x="260" y="161.0" width="404.8" height="15" rx="2" fill="#9aa7b4"/>
<line x1="645.2" y1="169.0" x2="684.4" y2="169.0" stroke="#1b1f24" stroke-width="1" opacity="0.55"/>
<line x1="645.2" y1="165.0" x2="645.2" y2="173.0" stroke="#1b1f24" stroke-width="1" opacity="0.55"/>
<line x1="684.4" y1="165.0" x2="684.4" y2="173.0" stroke="#1b1f24" stroke-width="1" opacity="0.55"/>
<text x="690.4" y="173.7" font-size="10.5" fill="#5b636d">0.993×   inside its own noise  (0.050 s)</text>
<text x="250" y="199.7" font-size="11" fill="#1b1f24" text-anchor="end">system (control)</text>
<rect x="260" y="187.0" width="407.5" height="15" rx="2" fill="#8a8f98"/>
<line x1="649.0" y1="195.0" x2="685.9" y2="195.0" stroke="#1b1f24" stroke-width="1" opacity="0.55"/>
<line x1="649.0" y1="191.0" x2="649.0" y2="199.0" stroke="#1b1f24" stroke-width="1" opacity="0.55"/>
<line x1="685.9" y1="191.0" x2="685.9" y2="199.0" stroke="#1b1f24" stroke-width="1" opacity="0.55"/>
<text x="691.9" y="199.7" font-size="10.5" fill="#5b636d">1.000×  same as control  (0.050 s)</text>
<text x="16" y="248.0" font-size="10" fill="#5b636d">Generated by `alloc-bench report`. Ratios are within one image, architecture, profile and toolchain - no ratio crosses a group.</text></svg>