<svg xmlns="http://www.w3.org/2000/svg" width="830" height="364" viewBox="0 0 830 364" font-family="ui-sans-serif,system-ui,-apple-system,Segoe UI,Roboto,Helvetica,Arial,sans-serif" role="img" aria-label="Peak resident set relative to the control - debian / x86_64 / dynamic / distro - ◀ shorter bar is BETTER">
<rect width="100%" height="100%" fill="#ffffff"/>
<text x="16" y="26" font-size="15" font-weight="600" fill="#1b1f24">Peak resident set relative to the control - debian / x86_64 / dynamic / distro</text>
<text x="16" y="45" font-size="11" fill="#5b636d">workload `literal`; `ru_maxrss` from `wait4`, median of the run's samples</text>
<rect x="16" y="54" width="188" height="19" rx="9.5" fill="#1f7a4d" opacity="0.12"/>
<text x="110" y="67.5" font-size="10.5" font-weight="600" fill="#1f7a4d" text-anchor="middle">◀ shorter bar is BETTER</text>
<rect x="214.0" y="58" width="10" height="10" rx="2" fill="#8a8f98"/>
<text x="228.0" y="67" font-size="10" fill="#5b636d">control</text>
<rect x="267.8" y="58" width="10" height="10" rx="2" fill="#3b7dd8"/>
<text x="281.8" y="67" font-size="10" fill="#5b636d">better than control</text>
<rect x="386.4" y="58" width="10" height="10" rx="2" fill="#d1495b"/>
<text x="400.4" y="67" font-size="10" fill="#5b636d">worse than control</text>
<rect x="499.6" y="58" width="10" height="10" rx="2" fill="#9aa7b4"/>
<text x="513.6" y="67" font-size="10" fill="#5b636d">inside its own noise</text>
<line x1="260.0" y1="98.0" x2="260.0" y2="312.0" stroke="#d8dce1" stroke-width="1"/>
<text x="260.0" y="93.0" font-size="9.5" fill="#5b636d" text-anchor="middle">0×</text>
<line x1="314.5" y1="98.0" x2="314.5" y2="312.0" stroke="#d8dce1" stroke-width="1"/>
<text x="314.5" y="93.0" font-size="9.5" fill="#5b636d" text-anchor="middle">1×</text>
<line x1="369.1" y1="98.0" x2="369.1" y2="312.0" stroke="#d8dce1" stroke-width="1"/>
<text x="369.1" y="93.0" font-size="9.5" fill="#5b636d" text-anchor="middle">2×</text>
<line x1="423.6" y1="98.0" x2="423.6" y2="312.0" stroke="#d8dce1" stroke-width="1"/>
<text x="423.6" y="93.0" font-size="9.5" fill="#5b636d" text-anchor="middle">3×</text>
<line x1="478.1" y1="98.0" x2="478.1" y2="312.0" stroke="#d8dce1" stroke-width="1"/>
<text x="478.1" y="93.0" font-size="9.5" fill="#5b636d" text-anchor="middle">4×</text>
<line x1="532.7" y1="98.0" x2="532.7" y2="312.0" stroke="#d8dce1" stroke-width="1"/>
<text x="532.7" y="93.0" font-size="9.5" fill="#5b636d" text-anchor="middle">5×</text>
<line x1="587.2" y1="98.0" x2="587.2" y2="312.0" stroke="#d8dce1" stroke-width="1"/>
<text x="587.2" y="93.0" font-size="9.5" fill="#5b636d" text-anchor="middle">6×</text>
<line x1="641.7" y1="98.0" x2="641.7" y2="312.0" stroke="#d8dce1" stroke-width="1"/>
<text x="641.7" y="93.0" font-size="9.5" fill="#5b636d" text-anchor="middle">7×</text>
<line x1="696.3" y1="98.0" x2="696.3" y2="312.0" stroke="#d8dce1" stroke-width="1"/>
<text x="696.3" y="93.0" font-size="9.5" fill="#5b636d" text-anchor="middle">8×</text>
<line x1="260.0" y1="312.0" x2="720.0" y2="312.0" stroke="#aeb4bb" stroke-width="1"/>
<line x1="314.5" y1="98.0" x2="314.5" y2="316.0" stroke="#1b1f24" stroke-width="1.2" stroke-dasharray="4 3"/>
<text x="314.5" y="328.0" font-size="10" font-weight="600" fill="#1b1f24" text-anchor="middle">control = 1.000×</text>
<text x="250" y="121.7" font-size="11" fill="#1b1f24" text-anchor="end">system (control)</text>
<rect x="260" y="109.0" width="54.5" height="15" rx="2" fill="#8a8f98"/>
<text x="320.5" y="121.7" font-size="10.5" fill="#5b636d">1.000×  same as control  (5.7 MiB)</text>
<text x="250" y="147.7" font-size="11" fill="#1b1f24" text-anchor="end">jemalloc / preload</text>
<rect x="260" y="135.0" width="259.4" height="15" rx="2" fill="#d1495b"/>
<text x="525.4" y="147.7" font-size="10.5" fill="#5b636d">4.757×  375.7% more memory  (27.3 MiB)</text>
<text x="250" y="173.7" font-size="11" fill="#1b1f24" text-anchor="end">rpmalloc / preload</text>
<rect x="260" y="161.0" width="425.9" height="15" rx="2" fill="#d1495b"/>
<text x="691.9" y="173.7" font-size="10.5" fill="#5b636d">7.810×  681.0% more memory  (44.9 MiB)</text>
<text x="250" y="199.7" font-size="11" fill="#1b1f24" text-anchor="end">mimalloc / preload</text>
<rect x="260" y="187.0" width="185.8" height="15" rx="2" fill="#d1495b"/>
<text x="451.8" y="199.7" font-size="10.5" fill="#5b636d">3.408×  240.8% more memory  (19.6 MiB)</text>
<text x="250" y="225.7" font-size="11" fill="#1b1f24" text-anchor="end">tcmalloc / preload</text>
<rect x="260" y="213.0" width="156.9" height="15" rx="2" fill="#d1495b"/>
<text x="422.9" y="225.7" font-size="10.5" fill="#5b636d">2.877×  187.7% more memory  (16.5 MiB)</text>
<text x="250" y="251.7" font-size="11" fill="#1b1f24" text-anchor="end">snmalloc / preload</text>
<rect x="260" y="239.0" width="128.3" height="15" rx="2" fill="#d1495b"/>
<text x="394.3" y="251.7" font-size="10.5" fill="#5b636d">2.352×  135.2% more memory  (13.5 MiB)</text>
<text x="250" y="277.7" font-size="11" fill="#1b1f24" text-anchor="end">mesh / preload</text>
<rect x="260" y="265.0" width="359.4" height="15" rx="2" fill="#d1495b"/>
<text x="625.4" y="277.7" font-size="10.5" fill="#5b636d">6.591×  559.1% more memory  (37.9 MiB)</text>
<text x="250" y="303.7" font-size="11" fill="#1b1f24" text-anchor="end">hardened_malloc / preload</text>
<rect x="260" y="291.0" width="345.5" height="15" rx="2" fill="#d1495b"/>
<text x="611.5" y="303.7" font-size="10.5" fill="#5b636d">6.336×  533.6% more memory  (36.4 MiB)</text>
<text x="16" y="352.0" font-size="10" fill="#5b636d">Peak RSS is what sets a container's memory limit.  It is not the allocator's own idea of heap size, and it does NOT transfer between machines (docs/AGENTS.md).</text></svg>