<svg xmlns="http://www.w3.org/2000/svg" width="810" height="252" viewBox="0 0 810 252" font-family="ui-sans-serif,system-ui,-apple-system,Segoe UI,Roboto,Helvetica,Arial,sans-serif">
<rect width="100%" height="100%" fill="#ffffff"/>
<text x="16" y="26" font-size="15" font-weight="600" fill="#1b1f24">Peak resident set relative to the control - alpine / aarch64 / static-lto / distro</text>
<text x="16" y="45" font-size="11" fill="#5b636d">workload `literal`; ru_maxrss from wait4, median of the run's samples; lower is less memory</text>
<line x1="343.9" y1="52.0" x2="343.9" y2="218.0" stroke="#d8dce1" stroke-width="1" stroke-dasharray="4 3"/>
<text x="343.9" y="48.0" font-size="10" fill="#5b636d" text-anchor="middle">control</text>
<text x="250" y="79.7" font-size="11" fill="#1b1f24" text-anchor="end">jemalloc / rust-global</text>
<rect x="260" y="67.0" width="131.7" height="15" rx="2" fill="#d1495b"/>
<text x="397.7" y="79.7" font-size="10.5" fill="#5b636d">1.569x  (5.4 MiB)</text>
<text x="250" y="105.7" font-size="11" fill="#1b1f24" text-anchor="end">rpmalloc / rust-global</text>
<rect x="260" y="93.0" width="94.6" height="15" rx="2" fill="#d1495b"/>
<text x="360.6" y="105.7" font-size="10.5" fill="#5b636d">1.127x  (3.9 MiB)</text>
<text x="250" y="131.7" font-size="11" fill="#1b1f24" text-anchor="end">mimalloc / rust-global</text>
<rect x="260" y="119.0" width="425.9" height="15" rx="2" fill="#d1495b"/>
<text x="691.9" y="131.7" font-size="10.5" fill="#5b636d">5.075x  (17.5 MiB)</text>
<text x="250" y="157.7" font-size="11" fill="#1b1f24" text-anchor="end">snmalloc / rust-global</text>
<rect x="260" y="145.0" width="158.8" height="15" rx="2" fill="#d1495b"/>
<text x="424.8" y="157.7" font-size="10.5" fill="#5b636d">1.892x  (6.5 MiB)</text>
<text x="250" y="183.7" font-size="11" fill="#1b1f24" text-anchor="end">system (control)</text>
<rect x="260" y="171.0" width="83.9" height="15" rx="2" fill="#8a8f98"/>
<text x="349.9" y="183.7" font-size="10.5" fill="#5b636d">1.000x  (3.4 MiB)</text>
<text x="250" y="209.7" font-size="11" fill="#1b1f24" text-anchor="end">hardened_malloc / rust-global</text>
<rect x="260" y="197.0" width="310.7" height="15" rx="2" fill="#d1495b"/>
<text x="576.7" y="209.7" font-size="10.5" fill="#5b636d">3.702x  (12.8 MiB)</text>
<text x="16" y="240.0" font-size="10" fill="#5b636d">Peak RSS is what sets a container's memory limit. It is not the allocator's own idea of heap size.</text></svg>