<svg xmlns="http://www.w3.org/2000/svg" width="830" height="338" viewBox="0 0 830 338" font-family="ui-sans-serif,system-ui,-apple-system,Segoe UI,Roboto,Helvetica,Arial,sans-serif" role="img" aria-label="Peak resident set relative to the control - debian / x86_64 / dynamic / distro - ◀ shorter bar is BETTER">
<rect width="100%" height="100%" fill="#ffffff"/>
<text x="16" y="26" font-size="15" font-weight="600" fill="#1b1f24">Peak resident set relative to the control - debian / x86_64 / dynamic / distro</text>
<text x="16" y="45" font-size="11" fill="#5b636d">workload `literal`; `ru_maxrss` from `wait4`, median of the run's samples</text>
<rect x="16" y="54" width="188" height="19" rx="9.5" fill="#1f7a4d" opacity="0.12"/>
<text x="110" y="67.5" font-size="10.5" font-weight="600" fill="#1f7a4d" text-anchor="middle">◀ shorter bar is BETTER</text>
<rect x="214.0" y="58" width="10" height="10" rx="2" fill="#8a8f98"/>
<text x="228.0" y="67" font-size="10" fill="#5b636d">control</text>
<rect x="267.8" y="58" width="10" height="10" rx="2" fill="#3b7dd8"/>
<text x="281.8" y="67" font-size="10" fill="#5b636d">better than control</text>
<rect x="386.4" y="58" width="10" height="10" rx="2" fill="#d1495b"/>
<text x="400.4" y="67" font-size="10" fill="#5b636d">worse than control</text>
<rect x="499.6" y="58" width="10" height="10" rx="2" fill="#9aa7b4"/>
<text x="513.6" y="67" font-size="10" fill="#5b636d">inside its own noise</text>
<line x1="260.0" y1="98.0" x2="260.0" y2="286.0" stroke="#d8dce1" stroke-width="1"/>
<text x="260.0" y="93.0" font-size="9.5" fill="#5b636d" text-anchor="middle">0×</text>
<line x1="329.4" y1="98.0" x2="329.4" y2="286.0" stroke="#d8dce1" stroke-width="1"/>
<text x="329.4" y="93.0" font-size="9.5" fill="#5b636d" text-anchor="middle">0.5×</text>
<line x1="398.8" y1="98.0" x2="398.8" y2="286.0" stroke="#d8dce1" stroke-width="1"/>
<text x="398.8" y="93.0" font-size="9.5" fill="#5b636d" text-anchor="middle">1×</text>
<line x1="468.1" y1="98.0" x2="468.1" y2="286.0" stroke="#d8dce1" stroke-width="1"/>
<text x="468.1" y="93.0" font-size="9.5" fill="#5b636d" text-anchor="middle">1.5×</text>
<line x1="537.5" y1="98.0" x2="537.5" y2="286.0" stroke="#d8dce1" stroke-width="1"/>
<text x="537.5" y="93.0" font-size="9.5" fill="#5b636d" text-anchor="middle">2×</text>
<line x1="606.9" y1="98.0" x2="606.9" y2="286.0" stroke="#d8dce1" stroke-width="1"/>
<text x="606.9" y="93.0" font-size="9.5" fill="#5b636d" text-anchor="middle">2.5×</text>
<line x1="676.3" y1="98.0" x2="676.3" y2="286.0" stroke="#d8dce1" stroke-width="1"/>
<text x="676.3" y="93.0" font-size="9.5" fill="#5b636d" text-anchor="middle">3×</text>
<line x1="260.0" y1="286.0" x2="720.0" y2="286.0" stroke="#aeb4bb" stroke-width="1"/>
<line x1="398.8" y1="98.0" x2="398.8" y2="290.0" stroke="#1b1f24" stroke-width="1.2" stroke-dasharray="4 3"/>
<text x="398.8" y="302.0" font-size="10" font-weight="600" fill="#1b1f24" text-anchor="middle">control = 1.000×</text>
<text x="250" y="121.7" font-size="11" fill="#1b1f24" text-anchor="end">system (control)</text>
<rect x="260" y="109.0" width="138.8" height="15" rx="2" fill="#8a8f98"/>
<text x="404.8" y="121.7" font-size="10.5" fill="#5b636d">1.000×  same as control  (6.4 MiB)</text>
<text x="250" y="147.7" font-size="11" fill="#1b1f24" text-anchor="end">snmalloc / preload</text>
<rect x="260" y="135.0" width="185.2" height="15" rx="2" fill="#d1495b"/>
<text x="451.2" y="147.7" font-size="10.5" fill="#5b636d">1.335×  33.5% more memory  (8.5 MiB)</text>
<text x="250" y="173.7" font-size="11" fill="#1b1f24" text-anchor="end">mimalloc / preload</text>
<rect x="260" y="161.0" width="425.9" height="15" rx="2" fill="#d1495b"/>
<text x="691.9" y="173.7" font-size="10.5" fill="#5b636d">3.070×  207.0% more memory  (19.6 MiB)</text>
<text x="250" y="199.7" font-size="11" fill="#1b1f24" text-anchor="end">rpmalloc / preload</text>
<rect x="260" y="187.0" width="140.2" height="15" rx="2" fill="#d1495b"/>
<text x="406.2" y="199.7" font-size="10.5" fill="#5b636d">1.010×  1.0% more memory  (6.5 MiB)</text>
<text x="250" y="225.7" font-size="11" fill="#1b1f24" text-anchor="end">jemalloc / preload</text>
<rect x="260" y="213.0" width="173.0" height="15" rx="2" fill="#d1495b"/>
<text x="439.0" y="225.7" font-size="10.5" fill="#5b636d">1.247×  24.7% more memory  (8.0 MiB)</text>
<text x="250" y="251.7" font-size="11" fill="#1b1f24" text-anchor="end">mesh / preload</text>
<rect x="260" y="239.0" width="173.7" height="15" rx="2" fill="#d1495b"/>
<text x="439.7" y="251.7" font-size="10.5" fill="#5b636d">1.252×  25.2% more memory  (8.0 MiB)</text>
<text x="250" y="277.7" font-size="11" fill="#1b1f24" text-anchor="end">hardened_malloc / preload</text>
<rect x="260" y="265.0" width="338.3" height="15" rx="2" fill="#d1495b"/>
<text x="604.3" y="277.7" font-size="10.5" fill="#5b636d">2.438×  143.8% more memory  (15.6 MiB)</text>
<text x="16" y="326.0" font-size="10" fill="#5b636d">Peak RSS is what sets a container's memory limit.  It is not the allocator's own idea of heap size, and it does NOT transfer between machines (docs/AGENTS.md).</text></svg>