<svg xmlns="http://www.w3.org/2000/svg" width="830" height="338" viewBox="0 0 830 338" font-family="ui-sans-serif,system-ui,-apple-system,Segoe UI,Roboto,Helvetica,Arial,sans-serif" role="img" aria-label="Execution time relative to the control - debian / x86_64 / dynamic / distro - ◀ shorter bar is BETTER">
<rect width="100%" height="100%" fill="#ffffff"/>
<text x="16" y="26" font-size="15" font-weight="600" fill="#1b1f24">Execution time relative to the control - debian / x86_64 / dynamic / distro</text>
<text x="16" y="45" font-size="11" fill="#5b636d">workload `literal`; median of the run's samples; whiskers are that cell's own relative MAD</text>
<rect x="16" y="54" width="188" height="19" rx="9.5" fill="#1f7a4d" opacity="0.12"/>
<text x="110" y="67.5" font-size="10.5" font-weight="600" fill="#1f7a4d" text-anchor="middle">◀ shorter bar is BETTER</text>
<rect x="214.0" y="58" width="10" height="10" rx="2" fill="#8a8f98"/>
<text x="228.0" y="67" font-size="10" fill="#5b636d">control</text>
<rect x="267.8" y="58" width="10" height="10" rx="2" fill="#3b7dd8"/>
<text x="281.8" y="67" font-size="10" fill="#5b636d">better than control</text>
<rect x="386.4" y="58" width="10" height="10" rx="2" fill="#d1495b"/>
<text x="400.4" y="67" font-size="10" fill="#5b636d">worse than control</text>
<rect x="499.6" y="58" width="10" height="10" rx="2" fill="#9aa7b4"/>
<text x="513.6" y="67" font-size="10" fill="#5b636d">inside its own noise</text>
<line x1="260.0" y1="98.0" x2="260.0" y2="286.0" stroke="#d8dce1" stroke-width="1"/>
<text x="260.0" y="93.0" font-size="9.5" fill="#5b636d" text-anchor="middle">0×</text>
<line x1="360.1" y1="98.0" x2="360.1" y2="286.0" stroke="#d8dce1" stroke-width="1"/>
<text x="360.1" y="93.0" font-size="9.5" fill="#5b636d" text-anchor="middle">0.5×</text>
<line x1="460.2" y1="98.0" x2="460.2" y2="286.0" stroke="#d8dce1" stroke-width="1"/>
<text x="460.2" y="93.0" font-size="9.5" fill="#5b636d" text-anchor="middle">1×</text>
<line x1="560.3" y1="98.0" x2="560.3" y2="286.0" stroke="#d8dce1" stroke-width="1"/>
<text x="560.3" y="93.0" font-size="9.5" fill="#5b636d" text-anchor="middle">1.5×</text>
<line x1="660.4" y1="98.0" x2="660.4" y2="286.0" stroke="#d8dce1" stroke-width="1"/>
<text x="660.4" y="93.0" font-size="9.5" fill="#5b636d" text-anchor="middle">2×</text>
<line x1="260.0" y1="286.0" x2="720.0" y2="286.0" stroke="#aeb4bb" stroke-width="1"/>
<line x1="460.2" y1="98.0" x2="460.2" y2="290.0" stroke="#1b1f24" stroke-width="1.2" stroke-dasharray="4 3"/>
<text x="460.2" y="302.0" font-size="10" font-weight="600" fill="#1b1f24" text-anchor="middle">control = 1.000×</text>
<text x="250" y="121.7" font-size="11" fill="#1b1f24" text-anchor="end">system (control)</text>
<rect x="260" y="109.0" width="200.2" height="15" rx="2" fill="#8a8f98"/>
<line x1="450.2" y1="117.0" x2="470.2" y2="117.0" stroke="#1b1f24" stroke-width="1" opacity="0.55"/>
<line x1="450.2" y1="113.0" x2="450.2" y2="121.0" stroke="#1b1f24" stroke-width="1" opacity="0.55"/>
<line x1="470.2" y1="113.0" x2="470.2" y2="121.0" stroke="#1b1f24" stroke-width="1" opacity="0.55"/>
<text x="476.2" y="121.7" font-size="10.5" fill="#5b636d">1.000×  same as control  (0.035 s)</text>
<text x="250" y="147.7" font-size="11" fill="#1b1f24" text-anchor="end">snmalloc / preload</text>
<rect x="260" y="135.0" width="205.8" height="15" rx="2" fill="#9aa7b4"/>
<line x1="458.4" y1="143.0" x2="473.3" y2="143.0" stroke="#1b1f24" stroke-width="1" opacity="0.55"/>
<line x1="458.4" y1="139.0" x2="458.4" y2="147.0" stroke="#1b1f24" stroke-width="1" opacity="0.55"/>
<line x1="473.3" y1="139.0" x2="473.3" y2="147.0" stroke="#1b1f24" stroke-width="1" opacity="0.55"/>
<text x="479.3" y="147.7" font-size="10.5" fill="#5b636d">1.028×   inside its own noise  (0.036 s)</text>
<text x="250" y="173.7" font-size="11" fill="#1b1f24" text-anchor="end">mimalloc / preload</text>
<rect x="260" y="161.0" width="238.9" height="15" rx="2" fill="#d1495b"/>
<line x1="492.1" y1="169.0" x2="505.8" y2="169.0" stroke="#1b1f24" stroke-width="1" opacity="0.55"/>
<line x1="492.1" y1="165.0" x2="492.1" y2="173.0" stroke="#1b1f24" stroke-width="1" opacity="0.55"/>
<line x1="505.8" y1="165.0" x2="505.8" y2="173.0" stroke="#1b1f24" stroke-width="1" opacity="0.55"/>
<text x="511.8" y="173.7" font-size="10.5" fill="#5b636d">1.194×  19.4% slower  (0.042 s)</text>
<text x="250" y="199.7" font-size="11" fill="#1b1f24" text-anchor="end">rpmalloc / preload</text>
<rect x="260" y="187.0" width="240.0" height="15" rx="2" fill="#d1495b"/>
<line x1="491.4" y1="195.0" x2="508.6" y2="195.0" stroke="#1b1f24" stroke-width="1" opacity="0.55"/>
<line x1="491.4" y1="191.0" x2="491.4" y2="199.0" stroke="#1b1f24" stroke-width="1" opacity="0.55"/>
<line x1="508.6" y1="191.0" x2="508.6" y2="199.0" stroke="#1b1f24" stroke-width="1" opacity="0.55"/>
<text x="514.6" y="199.7" font-size="10.5" fill="#5b636d">1.199×  19.9% slower  (0.042 s)</text>
<text x="250" y="225.7" font-size="11" fill="#1b1f24" text-anchor="end">jemalloc / preload</text>
<rect x="260" y="213.0" width="243.5" height="15" rx="2" fill="#d1495b"/>
<line x1="498.9" y1="221.0" x2="508.2" y2="221.0" stroke="#1b1f24" stroke-width="1" opacity="0.55"/>
<line x1="498.9" y1="217.0" x2="498.9" y2="225.0" stroke="#1b1f24" stroke-width="1" opacity="0.55"/>
<line x1="508.2" y1="217.0" x2="508.2" y2="225.0" stroke="#1b1f24" stroke-width="1" opacity="0.55"/>
<text x="514.2" y="225.7" font-size="10.5" fill="#5b636d">1.217×  21.7% slower  (0.043 s)</text>
<text x="250" y="251.7" font-size="11" fill="#1b1f24" text-anchor="end">mesh / preload</text>
<rect x="260" y="239.0" width="250.2" height="15" rx="2" fill="#d1495b"/>
<line x1="504.3" y1="247.0" x2="516.0" y2="247.0" stroke="#1b1f24" stroke-width="1" opacity="0.55"/>
<line x1="504.3" y1="243.0" x2="504.3" y2="251.0" stroke="#1b1f24" stroke-width="1" opacity="0.55"/>
<line x1="516.0" y1="243.0" x2="516.0" y2="251.0" stroke="#1b1f24" stroke-width="1" opacity="0.55"/>
<text x="522.0" y="251.7" font-size="10.5" fill="#5b636d">1.250×  25.0% slower  (0.044 s)</text>
<text x="250" y="277.7" font-size="11" fill="#1b1f24" text-anchor="end">hardened_malloc / preload</text>
<rect x="260" y="265.0" width="421.9" height="15" rx="2" fill="#d1495b"/>
<line x1="678.0" y1="273.0" x2="685.9" y2="273.0" stroke="#1b1f24" stroke-width="1" opacity="0.55"/>
<line x1="678.0" y1="269.0" x2="678.0" y2="277.0" stroke="#1b1f24" stroke-width="1" opacity="0.55"/>
<line x1="685.9" y1="269.0" x2="685.9" y2="277.0" stroke="#1b1f24" stroke-width="1" opacity="0.55"/>
<text x="691.9" y="277.7" font-size="10.5" fill="#5b636d">2.108×  110.8% slower  (0.074 s)</text>
<text x="16" y="326.0" font-size="10" fill="#5b636d">Generated by `alloc-bench report`. Ratios are within one image, architecture, profile and toolchain - no ratio crosses a group.</text></svg>